<svg width="22" height="27" viewBox="0 0 22 27" fill="none" xmlns="http://www.w3.org/2000/svg">
<path d="M15.0026 0.164062H3.0026C1.53594 0.164062 0.335938 1.36406 0.335938 2.83073V24.1641C0.335938 25.6307 1.53594 26.8307 3.0026 26.8307H19.0026C20.4693 26.8307 21.6693 25.6307 21.6693 24.1641V6.83073L15.0026 0.164062ZM3.0026 24.1641V2.83073H13.6693V8.16406H19.0026V24.1641H3.0026ZM16.3359 10.8307V17.4974C16.3359 20.4441 13.9493 22.8307 11.0026 22.8307C8.05594 22.8307 5.66927 20.4441 5.66927 17.4974V8.83073C5.66927 6.87073 7.34927 5.31073 9.34927 5.51073C11.0826 5.68406 12.3359 7.27073 12.3359 9.0174V17.4974H9.66927V8.83073C9.66927 8.4574 9.37594 8.16406 9.0026 8.16406C8.62927 8.16406 8.33594 8.4574 8.33594 8.83073V17.4974C8.33594 18.9641 9.53594 20.1641 11.0026 20.1641C12.4693 20.1641 13.6693 18.9641 13.6693 17.4974V10.8307H16.3359Z" fill="black"/>
</svg>
