<svg width="16" height="16" viewBox="0 0 16 16" fill="none" xmlns="http://www.w3.org/2000/svg">
<g clip-path="url(#clip0_2514_73029)">
<path d="M8.00003 3.55556C8.28336 3.55556 8.52103 3.47052 8.71303 3.30044C8.90436 3.12978 9.00003 2.91852 9.00003 2.66667C9.00003 2.41481 8.90436 2.20356 8.71303 2.03289C8.52103 1.86282 8.28336 1.77778 8.00003 1.77778C7.71669 1.77778 7.47936 1.86282 7.28803 2.03289C7.09603 2.20356 7.00003 2.41481 7.00003 2.66667C7.00003 2.91852 7.09603 3.12978 7.28803 3.30044C7.47936 3.47052 7.71669 3.55556 8.00003 3.55556ZM10.825 3.55556H12.575C13.075 3.55556 13.5084 3.7037 13.875 4C14.2417 4.2963 14.4667 4.65926 14.55 5.08889L15.975 13.9778C16.0584 14.5111 15.9044 14.9813 15.513 15.3884C15.121 15.7961 14.6167 16 14 16H2.00003C1.38336 16 0.87936 15.7961 0.488027 15.3884C0.0960271 14.9813 -0.0583061 14.5111 0.0250273 13.9778L1.45003 5.08889C1.53336 4.65926 1.75836 4.2963 2.12503 4C2.49169 3.7037 2.92503 3.55556 3.42503 3.55556H5.17503C5.12503 3.40741 5.08336 3.26281 5.05003 3.12178C5.01669 2.98133 5.00003 2.82963 5.00003 2.66667C5.00003 1.92593 5.29169 1.2963 5.87503 0.777778C6.45836 0.259259 7.16669 0 8.00003 0C8.83336 0 9.54169 0.259259 10.125 0.777778C10.7084 1.2963 11 1.92593 11 2.66667C11 2.82963 10.9834 2.98133 10.95 3.12178C10.9167 3.26281 10.875 3.40741 10.825 3.55556Z" fill="black"/>
</g>
<defs>
<clipPath id="clip0_2514_73029">
<rect width="16" height="16" fill="white"/>
</clipPath>
</defs>
</svg>
